<svg width="55" height="55" viewBox="0 0 55 55" fill="none" xmlns="http://www.w3.org/2000/svg">
    <rect width="55" height="55" rx="27.5" fill="#E8EAED"/>
    <path d="M29.292 34.824C29.292 35.154 29.226 35.44 29.094 35.66C28.962 35.902 28.808 36.1 28.61 36.254C28.39 36.43 28.148 36.54 27.884 36.628C27.62 36.716 27.334 36.738 27.048 36.738C26.74 36.738 26.476 36.716 26.212 36.628C25.948 36.54 25.706 36.43 25.508 36.254C25.31 36.1 25.156 35.902 25.024 35.66C24.892 35.44 24.848 35.154 24.848 34.824V24.572C24.848 23.956 25.068 23.472 25.508 23.164C25.948 22.856 26.476 22.68 27.048 22.68C27.334 22.68 27.62 22.724 27.884 22.812C28.148 22.9 28.39 23.01 28.61 23.164C28.808 23.318 28.962 23.516 29.094 23.758C29.226 24 29.292 24.264 29.292 24.572V34.824ZM29.402 19.688C29.402 20.04 29.336 20.326 29.204 20.568C29.072 20.81 28.896 21.008 28.676 21.162C28.456 21.338 28.192 21.448 27.928 21.536C27.642 21.624 27.356 21.646 27.07 21.646C26.762 21.646 26.476 21.624 26.212 21.536C25.926 21.448 25.684 21.338 25.464 21.162C25.244 21.008 25.09 20.81 24.958 20.568C24.826 20.326 24.76 20.04 24.76 19.688V19.666C24.76 19.358 24.826 19.072 24.958 18.83C25.09 18.588 25.244 18.39 25.464 18.214C25.684 18.038 25.926 17.928 26.212 17.84C26.476 17.752 26.762 17.708 27.07 17.708C27.356 17.708 27.642 17.752 27.928 17.84C28.192 17.928 28.456 18.038 28.676 18.214C28.896 18.39 29.072 18.588 29.204 18.83C29.336 19.072 29.402 19.358 29.402 19.666V19.688Z" fill="#FBFCFE"/>
    </svg>
    